<mxfile host="app.diagrams.net" modified="2023-03-27T02:50:39.029Z" agent="Mozilla/5.0 (Windows NT 10.0; WOW64) AppleWebKit/537.36 (KHTML, like Gecko) Chrome/104.0.0.0 Safari/537.36" version="21.1.1" etag="Hu3i6sXJkXHPY1zuOmIj" type="github">
  <diagram name="第 1 页" id="s7JXP6i6nBWdZzDj86w5">
    <mxGraphModel>
      <root>
        <mxCell id="0" />
        <mxCell id="1" parent="0" />
      </root>
    </mxGraphModel>
  </diagram>
</mxfile>
